<svg xmlns="http://www.w3.org/2000/svg" version="1.1" xmlns:xlink="http://www.w3.org/1999/xlink" width="1500" height="1500" viewBox="0 0 1500 1500"><rect width="1500" height="1500" x="0" y="0" id="background" stroke="transparent" fill="#26767f"></rect><svg xml:space="preserve" width="1000" height="1000" data-version="2" data-id="lg_1wQtxBn45FVSKKq5jW" viewBox="0 0 565 458" x="250" y="250"><rect width="100%" height="100%" fill="transparent"></rect><path fill="#fff" d="M131 352.205q0 6.27-2.91 10.83-2.9 4.56-8.03 7.01-5.13 2.45-12.09 2.45-5.47 0-10.09-1.31-4.61-1.31-7.86-3.13-3.25-1.83-4.85-3.08v-9.8h1.48q3.54 3.07 9.18 5.58 5.64 2.51 11.34 2.51 3.65 0 6.79-1.08 3.13-1.09 5.01-3.48 1.88-2.39 1.88-5.93 0-4.44-2.28-7.35-2.28-2.91-6.95-5.76l-13.79-8.66q-3.2-2.05-6.56-4.73-3.36-2.68-5.58-6.61-2.23-3.94-2.23-9.64 0-6.5 2.97-10.94 2.96-4.45 7.98-6.73 5.01-2.28 11.28-2.28 5.59 0 9.81 1.14 4.21 1.14 7.18 2.85 2.96 1.71 4.67 3.42v9.81h-1.59q-2.85-3.31-8.1-5.65-5.24-2.33-11.74-2.33-5.36 0-8.83 2.56-3.48 2.57-3.48 7.35 0 4.45 3.08 7.64 3.07 3.19 7.41 5.93l12.76 7.98q3.88 2.39 7.07 5.36 3.19 2.96 5.13 6.84 1.94 3.87 1.94 9.23m55.29-25.53v-35.34h10.15v79.8h-10.15v-35.34h-34.77v35.34h-10.03v-79.8h10.03v35.34zm20.98 4.56q0-14.6 4.67-23.66t12.26-13.34q7.58-4.27 16.47-4.27 8.89 0 16.47 4.27 7.58 4.28 12.26 13.34 4.67 9.06 4.67 23.66 0 14.47-4.67 23.59-4.68 9.12-12.26 13.4-7.58 4.27-16.47 4.27-8.89 0-16.47-4.27-7.59-4.28-12.26-13.4-4.67-9.12-4.67-23.59m10.37 0q0 10.6 3.02 17.67 3.02 7.06 8.27 10.54 5.24 3.48 11.74 3.48 6.38 0 11.63-3.48 5.24-3.48 8.38-10.54 3.13-7.07 3.13-17.67 0-10.72-3.19-17.73t-8.44-10.49q-5.24-3.48-11.51-3.48-6.5 0-11.74 3.54-5.25 3.53-8.27 10.54-3.02 7.01-3.02 17.62m67.37 39.9.23-79.8h9.81v79.8zm3.77-79.8h23.37q6.72 0 11.97 2.68 5.24 2.67 8.26 8.03 3.02 5.36 3.02 13.34 0 7.75-3.13 13.11-3.14 5.36-8.27 8.15-5.13 2.79-11.17 2.79h-24.05zm5.58 9.12v30.21h16.99q3.87 0 6.95-1.71t4.96-5.08q1.88-3.36 1.88-8.03 0-5.13-1.88-8.55-1.88-3.42-4.96-5.13t-6.95-1.71zm30.78 70.68-17.1-37.28 9.46-1.26 17.9 36.71v1.83zm16.08-79.8h45.37v9.23h-17.56v70.57H359v-70.57h-17.78zm54.26 79.8v-79.8h10.03v70.68h27.02v9.12zm41.5-77.75v-2.05h10.26l13.45 41.83h9.57l13.46-41.83h10.26v2.05l-16.42 49.13h-7.07v28.62h-10.03v-28.5h-7.07zM24.41 412.115l-.64 3.72q-1.1-.27-2.3-.5-1.06-.23-2.42-.39-1.35-.16-2.82-.16-3.41 0-4.88 1.03-1.47 1.04-1.47 3.2.04 1.7 1.24 2.87 1.2 1.18 2.99 2.17 1.79.98 3.93 1.93 2.14.94 3.94 2.16 1.79 1.22 3.01 2.85 1.22 1.63 1.22 3.98 0 2.71-1.18 4.37-1.17 1.66-2.96 2.58-1.8.92-3.94 1.24-2.13.32-4.07.32-1.84 0-3.35-.23-1.52-.23-2.63-.51-1.28-.32-2.34-.73l.92-3.73q1.06.46 2.25.78 1.06.28 2.37.51 1.31.23 2.78.23 1.8 0 3.29-.23 1.5-.23 2.6-.74 1.11-.5 1.73-1.33.62-.83.62-2.02-.05-1.8-1.18-2.92-1.12-1.13-2.99-2.17-1.86-1.03-4-2-2.14-.96-3.93-2.21-1.79-1.24-3.01-2.94-1.22-1.7-1.22-4.23 0-1.47.5-2.9.51-1.43 1.73-2.53 1.22-1.1 3.17-1.79 1.96-.69 4.86-.69 1.65 0 3.15.16 1.49.16 2.6.34 1.28.23 2.43.51m22.22 30.77v-23.18l3.68-.42v23.6zm-.6-29.76q0-1.06.72-1.77.71-.71 1.77-.71 1.1 0 1.86.71t.76 1.77q0 1.06-.76 1.77t-1.86.71q-1.06 0-1.77-.71-.72-.71-.72-1.77m26.41 29.76v-18.95q0-1.56-.28-3.77l3.45-.46.51 2.9q1.24-.92 2.44-1.61 1.19-.69 2.57-1.2t2.81-.51q2.3 0 3.63.81 1.34.8 1.98 2.74 1.89-1.34 3.93-2.44 2.05-1.11 4.26-1.11 1.7 0 2.9.44 1.19.44 1.93 1.45.73 1.01 1.06 2.67.32 1.65.32 4.14v14.9h-3.68v-14.49q0-1.38-.05-2.46-.04-1.08-.32-1.84t-.9-1.17q-.62-.42-1.77-.42-1.06 0-2 .3t-1.95.85q-1.02.56-3.13 2.26v16.97h-3.68v-14.49q0-1.38-.05-2.46-.04-1.08-.32-1.84t-.9-1.17q-.62-.42-1.77-.42-1.19 0-2.48.51t-2.44 1.2q-1.15.69-2.39 1.61v17.06zm53.5 10.49v-28.29q0-1.66-.23-4.92l3.4-.46.41 2.48q.92-.78 1.91-1.4.99-.62 2.16-1.06 1.18-.44 2.51-.44 1.89 0 3.57.65 1.68.64 2.94 2.07 1.27 1.42 2 3.7.74 2.28.74 5.59 0 3.36-.99 5.68t-2.58 3.77q-1.58 1.45-3.59 2.1-2 .64-4.07.64-2.2-.05-4.5-.55v9.98zm8.18-13.11q1.94 0 3.32-.69t2.27-1.91q.9-1.22 1.31-2.8.42-1.59.42-3.39 0-1.61-.3-3.22t-.97-2.87q-.66-1.27-1.77-2.07-1.1-.81-2.71-.81-1.2 0-2.26.44-1.05.44-2 1.06-.94.62-1.81 1.4v14.12q.5.19 1.12.35.62.16 1.47.28.86.11 1.91.11m32.07 2.62v-34.45l3.68-.42v34.87zm42.18-3.63.69 3.08q-1.06.32-2.19.55-1.12.23-2.48.42-1.36.18-2.83.18-2.3 0-4.28-.64-1.98-.65-3.45-2.07-1.47-1.43-2.32-3.71-.85-2.27-.85-5.59 0-2.99.83-5.26.82-2.28 2.27-3.82 1.45-1.54 3.41-2.32 1.95-.79 4.25-.79 2.26 0 3.91.88 1.66.87 2.74 2.37 1.08 1.49 1.61 3.49t.53 4.21l-.69 2.03h-14.86q0 1.42.37 2.85.37 1.42 1.26 2.57.9 1.15 2.35 1.87 1.45.71 3.61.71 1.38 0 2.53-.16t2-.37q.85-.21 1.59-.48m-13.57-9.94h11.59q0-.32-.14-1.42-.14-1.11-.64-2.3-.51-1.2-1.57-2.14-1.05-.95-2.8-.95-1.93 0-3.18.81-1.24.8-1.97 1.91-.74 1.1-1.02 2.25-.27 1.15-.27 1.84m74.75 8.19v-5.24q-.92.04-1.75.09-.83.04-1.63.11-.81.07-1.45.16-3.31.42-4.69 1.45-1.38 1.04-1.38 2.97 0 1.61.98 2.42.99.8 2.6.8 2.21 0 3.94-.76 1.72-.76 3.38-2m.41 5.75-.46-2.53q-2.16 1.24-4.02 2-1.87.76-4.03.76-3.08 0-4.9-1.49-1.81-1.5-1.81-4.95 0-1.79.92-3.13.92-1.33 2.41-2.23 1.5-.9 3.38-1.4 1.89-.51 3.87-.65.82-.09 2.16-.16l2.07-.11q0-1.61-.09-2.88-.1-1.26-.56-2.16-.46-.9-1.35-1.36-.9-.46-2.56-.46-1.33 0-2.57.17-1.24.16-2.21.34-1.15.23-2.12.51l-.73-3.18q1.15-.27 2.48-.5 1.15-.23 2.67-.39 1.52-.17 3.27-.17 2.34 0 3.79.69 1.45.69 2.25 1.87.81 1.17 1.11 2.67.3 1.49.3 3.15v11.04q0 .64.02 1.35.02.72.09 1.41.07.69.16 1.42zm25.26-.37v-18.54q.04-.96-.23-4.18l3.4-.46.51 2.94q1.38-.92 2.73-1.61 1.36-.69 2.79-1.22 1.42-.53 2.76-.53 1.88 0 3.15.44 1.26.44 2.04 1.45.79 1.01 1.13 2.67.35 1.65.35 4.14v14.9h-3.68v-14.49q0-1.38-.05-2.46t-.39-1.84q-.35-.76-1.06-1.17-.71-.42-2-.42-1.2 0-2.53.53-1.33.53-2.62 1.22t-2.62 1.61v17.02zm55.01-5.06v-14.63q-1.65-.46-2.57-.57-.92-.12-1.89-.12-1.93 0-3.31.69-1.38.69-2.28 1.91-.9 1.22-1.31 2.81-.41 1.59-.41 3.38 0 1.61.34 3.22.35 1.61 1.08 2.9.74 1.29 1.8 2.07 1.05.78 2.53.78 1.01 0 2.09-.37 1.08-.37 2-.85.92-.48 1.93-1.22m.42 5.43-.37-2.21q-1.06.74-2.05 1.22-.99.48-2.16.85-1.17.37-2.28.37-4.32 0-6.78-3.06t-2.46-8.95q0-3.49 1.12-5.84 1.13-2.34 2.83-3.75 1.7-1.4 3.66-2 1.95-.6 3.61-.6.83 0 1.75.12.92.11 2.71.57v-11.54l3.68-.42v30.69q0 .64.02 1.35.03.72.1 1.41t.16 1.42zm64.53-23-.64 3.27q-1.93-.6-3.43-.81-1.49-.21-2.73-.21-1.61 0-2.7.79-1.08.78-1.08 2.02.05 1.1.97 1.89.92.78 2.14 1.4 1.22.62 2.71 1.36 1.5.73 2.81 1.65 1.31.92 2.14 2.21.83 1.29.87 3.08-.04 1.93-.85 3.2-.8 1.26-2.07 2.02-1.26.76-2.74 1.06-1.47.3-2.76.3-1.65 0-3.42-.18-1.77-.19-3.8-.79l.69-3.31q2.07.55 3.77.81 1.71.25 2.81.25.83 0 1.63-.18.81-.19 1.45-.53.65-.35 1.04-.9t.39-1.24q-.05-1.29-.88-2.19-.82-.89-2.14-1.61-1.31-.71-2.8-1.42-1.5-.72-2.81-1.66t-2.18-2.25q-.88-1.31-.88-3.25 0-1.38.72-2.46.71-1.08 1.84-1.79 1.12-.71 2.48-1.1 1.36-.4 2.65-.4 1.33 0 2.99.21 1.65.21 3.81.76m21.49 22.63v-34.45l3.68-.42v34.87zm42.18-3.63.69 3.08q-1.06.32-2.19.55-1.12.23-2.48.42-1.36.18-2.83.18-2.3 0-4.28-.64-1.98-.65-3.45-2.07-1.47-1.43-2.32-3.71-.85-2.27-.85-5.59 0-2.99.83-5.26.82-2.28 2.27-3.82 1.45-1.54 3.41-2.32 1.95-.79 4.25-.79 2.26 0 3.91.88 1.66.87 2.74 2.37 1.08 1.49 1.61 3.49t.53 4.21l-.69 2.03h-14.86q0 1.42.37 2.85.37 1.42 1.26 2.57.9 1.15 2.35 1.87 1.45.71 3.61.71 1.38 0 2.53-.16t2-.37q.85-.21 1.59-.48m-13.57-9.94h11.59q0-.32-.14-1.42-.14-1.11-.64-2.3-.51-1.2-1.57-2.14-1.05-.95-2.8-.95-1.93 0-3.18.81-1.24.8-1.97 1.91-.74 1.1-1.02 2.25-.27 1.15-.27 1.84m52.3 9.94.69 3.08q-1.06.32-2.19.55-1.12.23-2.48.42-1.36.18-2.83.18-2.3 0-4.28-.64-1.97-.65-3.45-2.07-1.47-1.43-2.32-3.71-.85-2.27-.85-5.59 0-2.99.83-5.26.83-2.28 2.27-3.82 1.45-1.54 3.41-2.32 1.95-.79 4.25-.79 2.26 0 3.91.88 1.66.87 2.74 2.37 1.08 1.49 1.61 3.49t.53 4.21l-.69 2.03h-14.86q0 1.42.37 2.85.37 1.42 1.26 2.57.9 1.15 2.35 1.87 1.45.71 3.61.71 1.38 0 2.53-.16t2-.37q.85-.21 1.59-.48m-13.57-9.94h11.59q0-.32-.14-1.42-.13-1.11-.64-2.3-.51-1.2-1.56-2.14-1.06-.95-2.81-.95-1.93 0-3.17.81-1.25.8-1.98 1.91-.74 1.1-1.01 2.25-.28 1.15-.28 1.84m35.88 13.57v-34.45l3.68-.42v20.75l10.26-9.02h5.06l-10.03 8.79 10.4 14.35h-4.65l-8.46-12-2.58 2.25v9.75zM337.404 34.246a18.518 18.518 0 0 0-14.402-21.933l-35.636-7.284a18.518 18.518 0 0 0-21.933 14.403l-39.01 187.314a18.518 18.518 0 0 0 14.402 21.933l35.636 7.284a18.518 18.518 0 0 0 21.933-14.403zm-19.834-7.037c2.84.576 4.691 3.374 4.074 6.255-.576 2.84-3.375 4.69-6.255 4.074a5.226 5.226 0 0 1-4.074-6.214 5.318 5.318 0 0 1 6.255-4.115m-21.522 29.01a8.065 8.065 0 0 1 6.255 9.589 8.065 8.065 0 0 1-9.588 6.254 8.094 8.094 0 0 1-6.255-9.588 8.135 8.135 0 0 1 9.588-6.254m-23.702 110.2a29.587 29.587 0 0 1-22.92-35.02 29.587 29.587 0 0 1 35.018-22.92 29.587 29.587 0 0 1 22.92 35.019 29.587 29.587 0 0 1-35.018 22.92"></path><circle r="33.7" fill="#fff" transform="translate(278.27 137.4)scale(.4115)"></circle></svg></svg>